<mxfile host="app.diagrams.net" modified="2021-06-03T07:53:07.951Z" agent="5.0 (Macintosh; Intel Mac OS X 10_15_7) AppleWebKit/537.36 (KHTML, like Gecko) Chrome/91.0.4472.77 Safari/537.36" etag="YMHxm0x3j13Yeq83E051" version="14.7.4" type="github">
  <diagram id="wFE0QG_FPsp0jaGvCLVb" name="Page-1">
    <mxGraphModel dx="1426" dy="769" grid="1" gridSize="10" guides="1" tooltips="1" connect="1" arrows="1" fold="1" page="1" pageScale="1" pageWidth="1100" pageHeight="1700" background="none" math="0" shadow="0">
      <root>
        <mxCell id="0" />
        <mxCell id="1" parent="0" />
        <mxCell id="0lpdv3RrC7ar1xtT10iS-10" value="" style="verticalLabelPosition=bottom;verticalAlign=top;html=1;shape=mxgraph.basic.rect;fillColor2=none;strokeWidth=1;size=20;indent=5;direction=south;fillColor=#fff2cc;strokeColor=#d6b656;" vertex="1" parent="1">
          <mxGeometry x="280" y="240" width="140" height="220" as="geometry" />
        </mxCell>
        <mxCell id="0lpdv3RrC7ar1xtT10iS-26" value="环境部署" style="text;html=1;resizable=0;autosize=1;align=center;verticalAlign=middle;points=[];fillColor=none;strokeColor=none;rounded=0;strokeWidth=1;fontSize=17;" vertex="1" parent="1">
          <mxGeometry x="307.5" y="255" width="80" height="30" as="geometry" />
        </mxCell>
        <mxCell id="0lpdv3RrC7ar1xtT10iS-27" value="webpack" style="rounded=1;whiteSpace=wrap;html=1;fontSize=12;strokeWidth=1;align=center;" vertex="1" parent="1">
          <mxGeometry x="300" y="310" width="95" height="50" as="geometry" />
        </mxCell>
        <mxCell id="0lpdv3RrC7ar1xtT10iS-28" value="node" style="rounded=1;whiteSpace=wrap;html=1;fontSize=12;strokeWidth=1;align=center;" vertex="1" parent="1">
          <mxGeometry x="300" y="390" width="95" height="50" as="geometry" />
        </mxCell>
        <mxCell id="0lpdv3RrC7ar1xtT10iS-29" value="" style="verticalLabelPosition=bottom;verticalAlign=top;html=1;shape=mxgraph.basic.rect;fillColor2=none;strokeWidth=1;size=20;indent=5;direction=south;fillColor=#dae8fc;strokeColor=#6c8ebf;" vertex="1" parent="1">
          <mxGeometry x="280" y="520" width="140" height="220" as="geometry" />
        </mxCell>
        <mxCell id="0lpdv3RrC7ar1xtT10iS-30" value="日志监控" style="text;html=1;resizable=0;autosize=1;align=center;verticalAlign=middle;points=[];fillColor=none;strokeColor=none;rounded=0;strokeWidth=1;fontSize=17;" vertex="1" parent="1">
          <mxGeometry x="307.5" y="535" width="80" height="30" as="geometry" />
        </mxCell>
        <mxCell id="0lpdv3RrC7ar1xtT10iS-31" value="错误监控" style="rounded=1;whiteSpace=wrap;html=1;fontSize=12;strokeWidth=1;align=center;" vertex="1" parent="1">
          <mxGeometry x="300" y="590" width="95" height="50" as="geometry" />
        </mxCell>
        <mxCell id="0lpdv3RrC7ar1xtT10iS-32" value="数据分析" style="rounded=1;whiteSpace=wrap;html=1;fontSize=12;strokeWidth=1;align=center;" vertex="1" parent="1">
          <mxGeometry x="300" y="670" width="95" height="50" as="geometry" />
        </mxCell>
        <mxCell id="0lpdv3RrC7ar1xtT10iS-33" value="" style="verticalLabelPosition=bottom;verticalAlign=top;html=1;shape=mxgraph.basic.rect;fillColor2=none;strokeWidth=1;size=20;indent=5;direction=west;fillColor=#fad7ac;strokeColor=#b46504;" vertex="1" parent="1">
          <mxGeometry x="460" y="240" width="780" height="140" as="geometry" />
        </mxCell>
        <mxCell id="0lpdv3RrC7ar1xtT10iS-36" value="" style="verticalLabelPosition=bottom;verticalAlign=top;html=1;shape=mxgraph.basic.rect;fillColor2=none;strokeWidth=1;size=20;indent=5;direction=west;fillColor=#cce5ff;strokeColor=#36393d;" vertex="1" parent="1">
          <mxGeometry x="460" y="420" width="780" height="140" as="geometry" />
        </mxCell>
        <mxCell id="0lpdv3RrC7ar1xtT10iS-37" value="" style="verticalLabelPosition=bottom;verticalAlign=top;html=1;shape=mxgraph.basic.rect;fillColor2=none;strokeWidth=1;size=20;indent=5;direction=west;fillColor=#1ba1e2;strokeColor=#006EAF;fontColor=#ffffff;" vertex="1" parent="1">
          <mxGeometry x="460" y="600" width="780" height="140" as="geometry" />
        </mxCell>
        <mxCell id="0lpdv3RrC7ar1xtT10iS-38" value="" style="verticalLabelPosition=bottom;verticalAlign=top;html=1;shape=mxgraph.basic.rect;fillColor2=none;strokeWidth=1;size=20;indent=5;direction=south;fillColor=#b1ddf0;strokeColor=#10739e;" vertex="1" parent="1">
          <mxGeometry x="1280" y="240" width="140" height="500" as="geometry" />
        </mxCell>
        <mxCell id="0lpdv3RrC7ar1xtT10iS-39" value="协同开发" style="text;html=1;resizable=0;autosize=1;align=center;verticalAlign=middle;points=[];fillColor=none;strokeColor=none;rounded=0;strokeWidth=1;fontSize=17;" vertex="1" parent="1">
          <mxGeometry x="1310" y="255" width="80" height="30" as="geometry" />
        </mxCell>
        <mxCell id="0lpdv3RrC7ar1xtT10iS-40" value="开发规范" style="rounded=1;whiteSpace=wrap;html=1;fontSize=12;strokeWidth=1;align=center;" vertex="1" parent="1">
          <mxGeometry x="1302.5" y="310" width="95" height="50" as="geometry" />
        </mxCell>
        <mxCell id="0lpdv3RrC7ar1xtT10iS-41" value="git分支管理" style="rounded=1;whiteSpace=wrap;html=1;fontSize=12;strokeWidth=1;align=center;" vertex="1" parent="1">
          <mxGeometry x="1302.5" y="400" width="95" height="50" as="geometry" />
        </mxCell>
        <mxCell id="0lpdv3RrC7ar1xtT10iS-42" value="code review" style="rounded=1;whiteSpace=wrap;html=1;fontSize=12;strokeWidth=1;align=center;" vertex="1" parent="1">
          <mxGeometry x="1302.5" y="480" width="95" height="50" as="geometry" />
        </mxCell>
        <mxCell id="0lpdv3RrC7ar1xtT10iS-43" value="在线文档" style="rounded=1;whiteSpace=wrap;html=1;fontSize=12;strokeWidth=1;align=center;" vertex="1" parent="1">
          <mxGeometry x="1302.5" y="560" width="95" height="50" as="geometry" />
        </mxCell>
        <mxCell id="0lpdv3RrC7ar1xtT10iS-44" value="npm私服" style="rounded=1;whiteSpace=wrap;html=1;fontSize=12;strokeWidth=1;align=center;" vertex="1" parent="1">
          <mxGeometry x="1302.5" y="640" width="95" height="50" as="geometry" />
        </mxCell>
        <mxCell id="0lpdv3RrC7ar1xtT10iS-46" value="" style="verticalLabelPosition=bottom;verticalAlign=top;html=1;shape=mxgraph.basic.rect;fillColor2=none;strokeWidth=1;size=20;indent=5;direction=west;fillColor=#cce5ff;strokeColor=#36393d;" vertex="1" parent="1">
          <mxGeometry x="490" y="260" width="310" height="100" as="geometry" />
        </mxCell>
        <mxCell id="0lpdv3RrC7ar1xtT10iS-45" value="utils工具类" style="rounded=0;whiteSpace=wrap;html=1;fontSize=12;strokeWidth=1;align=center;" vertex="1" parent="1">
          <mxGeometry x="510" y="270" width="80" height="30" as="geometry" />
        </mxCell>
        <mxCell id="0lpdv3RrC7ar1xtT10iS-47" value="pro-components" style="rounded=0;whiteSpace=wrap;html=1;fontSize=12;strokeWidth=1;align=center;" vertex="1" parent="1">
          <mxGeometry x="600" y="270" width="100" height="30" as="geometry" />
        </mxCell>
        <mxCell id="0lpdv3RrC7ar1xtT10iS-48" value="公共模块" style="text;html=1;resizable=0;autosize=1;align=center;verticalAlign=middle;points=[];fillColor=none;strokeColor=none;rounded=0;strokeWidth=1;fontSize=15;" vertex="1" parent="1">
          <mxGeometry x="710" y="300" width="80" height="20" as="geometry" />
        </mxCell>
        <mxCell id="0lpdv3RrC7ar1xtT10iS-49" value="mixins" style="rounded=0;whiteSpace=wrap;html=1;fontSize=12;strokeWidth=1;align=center;" vertex="1" parent="1">
          <mxGeometry x="510" y="314" width="80" height="30" as="geometry" />
        </mxCell>
        <mxCell id="0lpdv3RrC7ar1xtT10iS-50" value="pulgins" style="rounded=0;whiteSpace=wrap;html=1;fontSize=12;strokeWidth=1;align=center;" vertex="1" parent="1">
          <mxGeometry x="600" y="314" width="100" height="30" as="geometry" />
        </mxCell>
        <mxCell id="0lpdv3RrC7ar1xtT10iS-51" value="" style="verticalLabelPosition=bottom;verticalAlign=top;html=1;shape=mxgraph.basic.rect;fillColor2=none;strokeWidth=1;size=20;indent=5;direction=west;fillColor=#d5e8d4;strokeColor=#82b366;" vertex="1" parent="1">
          <mxGeometry x="822" y="260" width="318" height="100" as="geometry" />
        </mxCell>
        <mxCell id="0lpdv3RrC7ar1xtT10iS-52" value="view开发" style="rounded=0;whiteSpace=wrap;html=1;fontSize=12;strokeWidth=1;align=center;" vertex="1" parent="1">
          <mxGeometry x="840" y="270" width="80" height="30" as="geometry" />
        </mxCell>
        <mxCell id="0lpdv3RrC7ar1xtT10iS-53" value="view-component" style="rounded=0;whiteSpace=wrap;html=1;fontSize=12;strokeWidth=1;align=center;" vertex="1" parent="1">
          <mxGeometry x="930" y="270" width="110" height="30" as="geometry" />
        </mxCell>
        <mxCell id="0lpdv3RrC7ar1xtT10iS-54" value="业务开发" style="text;html=1;resizable=0;autosize=1;align=center;verticalAlign=middle;points=[];fillColor=none;strokeColor=none;rounded=0;strokeWidth=1;fontSize=15;" vertex="1" parent="1">
          <mxGeometry x="1052" y="300" width="80" height="20" as="geometry" />
        </mxCell>
        <mxCell id="0lpdv3RrC7ar1xtT10iS-55" value="接口联调" style="rounded=0;whiteSpace=wrap;html=1;fontSize=12;strokeWidth=1;align=center;" vertex="1" parent="1">
          <mxGeometry x="840" y="314" width="80" height="30" as="geometry" />
        </mxCell>
        <mxCell id="0lpdv3RrC7ar1xtT10iS-56" value="store" style="rounded=0;whiteSpace=wrap;html=1;fontSize=12;strokeWidth=1;align=center;" vertex="1" parent="1">
          <mxGeometry x="930" y="314" width="110" height="30" as="geometry" />
        </mxCell>
        <mxCell id="0lpdv3RrC7ar1xtT10iS-57" value="模块级" style="text;html=1;resizable=0;autosize=1;align=center;verticalAlign=middle;points=[];fillColor=none;strokeColor=none;rounded=0;strokeWidth=1;fontSize=17;" vertex="1" parent="1">
          <mxGeometry x="1152" y="295" width="70" height="30" as="geometry" />
        </mxCell>
        <mxCell id="0lpdv3RrC7ar1xtT10iS-58" value="" style="verticalLabelPosition=bottom;verticalAlign=top;html=1;shape=mxgraph.basic.rect;fillColor2=none;strokeWidth=1;size=20;indent=5;direction=west;fillColor=#fff2cc;strokeColor=#d6b656;" vertex="1" parent="1">
          <mxGeometry x="490" y="440" width="310" height="100" as="geometry" />
        </mxCell>
        <mxCell id="0lpdv3RrC7ar1xtT10iS-59" value="多页签" style="rounded=0;whiteSpace=wrap;html=1;fontSize=12;strokeWidth=1;align=center;" vertex="1" parent="1">
          <mxGeometry x="510" y="450" width="50" height="30" as="geometry" />
        </mxCell>
        <mxCell id="0lpdv3RrC7ar1xtT10iS-60" value="权限控制" style="rounded=0;whiteSpace=wrap;html=1;fontSize=12;strokeWidth=1;align=center;" vertex="1" parent="1">
          <mxGeometry x="570" y="450" width="60" height="30" as="geometry" />
        </mxCell>
        <mxCell id="0lpdv3RrC7ar1xtT10iS-61" value="脚手架" style="text;html=1;resizable=0;autosize=1;align=center;verticalAlign=middle;points=[];fillColor=none;strokeColor=none;rounded=0;strokeWidth=1;fontSize=15;" vertex="1" parent="1">
          <mxGeometry x="720" y="480" width="60" height="20" as="geometry" />
        </mxCell>
        <mxCell id="0lpdv3RrC7ar1xtT10iS-62" value="国际化" style="rounded=0;whiteSpace=wrap;html=1;fontSize=12;strokeWidth=1;align=center;" vertex="1" parent="1">
          <mxGeometry x="510" y="494" width="50" height="30" as="geometry" />
        </mxCell>
        <mxCell id="0lpdv3RrC7ar1xtT10iS-63" value="全局错误处理" style="rounded=0;whiteSpace=wrap;html=1;fontSize=12;strokeWidth=1;align=center;" vertex="1" parent="1">
          <mxGeometry x="570" y="494" width="80" height="30" as="geometry" />
        </mxCell>
        <mxCell id="0lpdv3RrC7ar1xtT10iS-65" value="字典数据" style="rounded=0;whiteSpace=wrap;html=1;fontSize=12;strokeWidth=1;align=center;" vertex="1" parent="1">
          <mxGeometry x="640" y="450" width="60" height="30" as="geometry" />
        </mxCell>
        <mxCell id="0lpdv3RrC7ar1xtT10iS-66" value="eslint" style="rounded=0;whiteSpace=wrap;html=1;fontSize=12;strokeWidth=1;align=center;" vertex="1" parent="1">
          <mxGeometry x="660" y="494" width="40" height="30" as="geometry" />
        </mxCell>
        <mxCell id="0lpdv3RrC7ar1xtT10iS-67" value="应用层" style="text;html=1;resizable=0;autosize=1;align=center;verticalAlign=middle;points=[];fillColor=none;strokeColor=none;rounded=0;strokeWidth=1;fontSize=17;" vertex="1" parent="1">
          <mxGeometry x="1152" y="475" width="70" height="30" as="geometry" />
        </mxCell>
        <mxCell id="0lpdv3RrC7ar1xtT10iS-68" value="" style="verticalLabelPosition=bottom;verticalAlign=top;html=1;shape=mxgraph.basic.rect;fillColor2=none;strokeWidth=1;size=20;indent=5;direction=west;fillColor=#d5e8d4;strokeColor=#82b366;" vertex="1" parent="1">
          <mxGeometry x="822" y="440" width="318" height="100" as="geometry" />
        </mxCell>
        <mxCell id="0lpdv3RrC7ar1xtT10iS-69" value="element-ui" style="rounded=0;whiteSpace=wrap;html=1;fontSize=12;strokeWidth=1;align=center;" vertex="1" parent="1">
          <mxGeometry x="840" y="450" width="80" height="30" as="geometry" />
        </mxCell>
        <mxCell id="0lpdv3RrC7ar1xtT10iS-70" value="插件维护" style="rounded=0;whiteSpace=wrap;html=1;fontSize=12;strokeWidth=1;align=center;" vertex="1" parent="1">
          <mxGeometry x="930" y="450" width="110" height="30" as="geometry" />
        </mxCell>
        <mxCell id="0lpdv3RrC7ar1xtT10iS-71" value="模式库" style="text;html=1;resizable=0;autosize=1;align=center;verticalAlign=middle;points=[];fillColor=none;strokeColor=none;rounded=0;strokeWidth=1;fontSize=15;" vertex="1" parent="1">
          <mxGeometry x="1062" y="480" width="60" height="20" as="geometry" />
        </mxCell>
        <mxCell id="0lpdv3RrC7ar1xtT10iS-72" value="vue-router" style="rounded=0;whiteSpace=wrap;html=1;fontSize=12;strokeWidth=1;align=center;" vertex="1" parent="1">
          <mxGeometry x="840" y="494" width="80" height="30" as="geometry" />
        </mxCell>
        <mxCell id="0lpdv3RrC7ar1xtT10iS-73" value="vuex" style="rounded=0;whiteSpace=wrap;html=1;fontSize=12;strokeWidth=1;align=center;" vertex="1" parent="1">
          <mxGeometry x="930" y="494" width="110" height="30" as="geometry" />
        </mxCell>
        <mxCell id="0lpdv3RrC7ar1xtT10iS-74" value="核心库" style="text;html=1;resizable=0;autosize=1;align=center;verticalAlign=middle;points=[];fillColor=none;strokeColor=none;rounded=0;strokeWidth=1;fontSize=17;" vertex="1" parent="1">
          <mxGeometry x="1152" y="655" width="70" height="30" as="geometry" />
        </mxCell>
        <mxCell id="0lpdv3RrC7ar1xtT10iS-75" value="Vue&amp;nbsp; 2.6.11" style="rounded=0;whiteSpace=wrap;html=1;fontSize=15;strokeWidth=1;align=center;" vertex="1" parent="1">
          <mxGeometry x="520" y="640" width="120" height="60" as="geometry" />
        </mxCell>
        <mxCell id="0lpdv3RrC7ar1xtT10iS-76" value="Element-ui 2.13.2" style="rounded=0;whiteSpace=wrap;html=1;fontSize=15;strokeWidth=1;align=center;" vertex="1" parent="1">
          <mxGeometry x="950" y="640" width="140" height="60" as="geometry" />
        </mxCell>
        <mxCell id="0lpdv3RrC7ar1xtT10iS-77" value="TypeScript" style="rounded=0;whiteSpace=wrap;html=1;fontSize=15;strokeWidth=1;align=center;" vertex="1" parent="1">
          <mxGeometry x="740" y="640" width="120" height="60" as="geometry" />
        </mxCell>
      </root>
    </mxGraphModel>
  </diagram>
</mxfile>
